<svg width="43" height="43" viewBox="0 0 43 43" fill="none" xmlns="http://www.w3.org/2000/svg">
<path d="M21.61 0.778931C16.0801 0.778931 10.7767 2.97569 6.86641 6.88594C2.95616 10.7962 0.759399 16.0996 0.759399 21.6296C0.759399 27.1595 2.95616 32.4629 6.86641 36.3732C10.7767 40.2834 16.0801 42.4802 21.61 42.4802C21.9941 42.4802 22.3727 42.4802 22.7513 42.4473C27.8752 42.1663 32.7156 40.0056 36.3459 36.3787C39.9763 32.7519 42.1417 27.9137 42.4277 22.7901C42.4497 22.406 42.4607 22.0191 42.4607 21.6296C42.4607 16.0996 40.2639 10.7962 36.3537 6.88594C32.4434 2.97569 27.14 0.778931 21.61 0.778931ZM22.573 27.8326L17.3603 32.941C17.0622 33.2309 16.7099 33.4592 16.3236 33.6129C15.9372 33.7667 15.5244 33.8428 15.1086 33.8369C14.6928 33.831 14.2822 33.7433 13.9004 33.5788C13.5185 33.4143 13.1728 33.1761 12.8829 32.8779L11.577 31.5418L10.1669 30.1042C9.87593 29.8072 9.64634 29.4558 9.49122 29.07C9.3361 28.6842 9.25849 28.2717 9.26283 27.8559C9.26716 27.4401 9.35334 27.0293 9.51646 26.6468C9.67958 26.2644 9.91644 25.9178 10.2135 25.6268L15.4262 20.5239C15.8741 20.0868 16.4416 19.7923 17.0568 19.6775C17.6721 19.5628 18.3076 19.633 18.883 19.8792C18.9802 19.9208 19.0656 19.9858 19.1317 20.0683C19.1978 20.1509 19.2424 20.2485 19.2617 20.3524C19.281 20.4564 19.2743 20.5635 19.2422 20.6643C19.2101 20.765 19.1536 20.8563 19.0778 20.93L18.562 21.4375C18.484 21.5153 18.387 21.5714 18.2807 21.6002C18.1743 21.6291 18.0623 21.6298 17.9557 21.6021C17.0531 21.3662 17.1326 21.5637 11.5688 27.0178C11.4523 27.1313 11.3598 27.267 11.2966 27.4168C11.2333 27.5666 11.2008 27.7276 11.2008 27.8902C11.2008 28.0529 11.2333 28.2138 11.2966 28.3637C11.3598 28.5135 11.4523 28.6492 11.5688 28.7627L12.9406 30.1701L14.2657 31.5226C14.3776 31.6375 14.511 31.7291 14.6584 31.7922C14.8058 31.8553 14.9642 31.8888 15.1245 31.8905C15.2848 31.8923 15.4439 31.8624 15.5927 31.8026C15.7414 31.7428 15.8769 31.6542 15.9913 31.5418C21.5387 26.1097 21.7527 26.1756 21.5442 25.2867C21.5178 25.1778 21.5201 25.0639 21.5509 24.9562C21.5816 24.8485 21.6398 24.7506 21.7198 24.6721L22.2355 24.1618C22.3117 24.0871 22.4064 24.034 22.5099 24.0082L23.407 26.3649C23.2672 26.9207 22.979 27.428 22.573 27.8326ZM21.9831 22.62L19.514 25.0507C19.4229 25.14 19.3151 25.2105 19.1967 25.2579C19.0783 25.3053 18.9517 25.3288 18.8241 25.327C18.6966 25.3252 18.5706 25.2982 18.4536 25.2475C18.3366 25.1968 18.2307 25.1234 18.1422 25.0315C18.1347 25.026 18.1289 25.0184 18.1258 25.0096C17.9543 24.8254 17.8615 24.5815 17.8671 24.3299C17.8728 24.0783 17.9764 23.8388 18.156 23.6625L21.2424 20.6446L23.7116 18.2166C23.8785 18.0522 24.0997 17.9545 24.3337 17.9418C24.5676 17.9292 24.7982 18.0025 24.9818 18.1481C25.0184 18.1708 25.0516 18.1985 25.0806 18.2304C25.2602 18.4135 25.3608 18.6597 25.3608 18.9162C25.3608 19.1727 25.2602 19.419 25.0806 19.6021L21.9831 22.62ZM33.0065 17.624L27.7939 22.727C27.3468 23.1598 26.7823 23.4518 26.1706 23.5664C25.5589 23.681 24.927 23.6133 24.3535 23.3717C24.2561 23.33 24.1704 23.265 24.1041 23.1823C24.0378 23.0996 23.9929 23.0019 23.9733 22.8977C23.9538 22.7935 23.9603 22.6862 23.9921 22.5851C24.024 22.484 24.0803 22.3923 24.156 22.3182L24.669 21.8106C24.7478 21.7322 24.8457 21.6757 24.953 21.6468C25.0603 21.6179 25.1734 21.6176 25.2808 21.646C26.1807 21.882 26.1039 21.6844 31.665 16.2303C31.7809 16.1162 31.8729 15.9802 31.9357 15.8302C31.9985 15.6802 32.0309 15.5192 32.0309 15.3565C32.0309 15.1939 31.9985 15.0329 31.9357 14.8829C31.8729 14.7329 31.7809 14.5968 31.665 14.4827L30.178 12.9683L28.9626 11.7228C28.8505 11.6081 28.7169 11.5167 28.5695 11.4538C28.422 11.3909 28.2635 11.3578 28.1032 11.3562C27.9429 11.3547 27.7838 11.3848 27.6352 11.4449C27.4865 11.505 27.3512 11.5938 27.237 11.7063C21.717 17.1083 21.4756 17.0726 21.6841 17.9615C21.7107 18.0716 21.7084 18.1868 21.6777 18.2958C21.647 18.4049 21.5887 18.5042 21.5085 18.5843L20.9927 19.0836C20.9158 19.1585 20.8216 19.2131 20.7184 19.2427C20.5658 19.2866 20.4024 19.2722 20.2599 19.2022C20.1174 19.1322 20.006 19.0117 19.9475 18.8641C19.6896 18.2345 19.6453 17.5378 19.8213 16.8806C19.9658 16.328 20.2568 15.8247 20.6635 15.4238L25.8762 10.3181C26.4777 9.73407 27.2859 9.41176 28.1243 9.42153C28.9626 9.4313 29.7631 9.77235 30.3508 10.3702L31.547 11.5966L33.0669 13.1439C33.357 13.4418 33.5855 13.794 33.7394 14.1803C33.8934 14.5665 33.9697 14.9793 33.9641 15.3951C33.9585 15.8109 33.8711 16.2215 33.7068 16.6035C33.5425 16.9854 33.3045 17.3313 33.0065 17.6213V17.624Z" fill="#757575"/>
<path d="M21.61 0.778931C16.0801 0.778931 10.7767 2.97569 6.86641 6.88594C2.95616 10.7962 0.759399 16.0996 0.759399 21.6296C0.759399 27.1595 2.95616 32.4629 6.86641 36.3732C10.7767 40.2834 16.0801 42.4802 21.61 42.4802C21.9941 42.4802 22.3727 42.4802 22.7513 42.4473C27.8752 42.1663 32.7156 40.0056 36.3459 36.3787C39.9763 32.7519 42.1417 27.9137 42.4277 22.7901C42.4497 22.406 42.4607 22.0191 42.4607 21.6296C42.4607 16.0996 40.2639 10.7962 36.3537 6.88594C32.4434 2.97569 27.14 0.778931 21.61 0.778931ZM22.573 27.8326L17.3603 32.941C17.0622 33.2309 16.7099 33.4592 16.3236 33.6129C15.9372 33.7667 15.5244 33.8428 15.1086 33.8369C14.6928 33.831 14.2822 33.7433 13.9004 33.5788C13.5185 33.4143 13.1728 33.1761 12.8829 32.8779L11.577 31.5418L10.1669 30.1042C9.87593 29.8072 9.64634 29.4558 9.49122 29.07C9.3361 28.6842 9.25849 28.2717 9.26283 27.8559C9.26716 27.4401 9.35334 27.0293 9.51646 26.6468C9.67958 26.2644 9.91644 25.9178 10.2135 25.6268L15.4262 20.5239C15.8741 20.0868 16.4416 19.7923 17.0568 19.6775C17.6721 19.5628 18.3076 19.633 18.883 19.8792C18.9802 19.9208 19.0656 19.9858 19.1317 20.0683C19.1978 20.1509 19.2424 20.2485 19.2617 20.3524C19.281 20.4564 19.2743 20.5635 19.2422 20.6643C19.2101 20.765 19.1536 20.8563 19.0778 20.93L18.562 21.4375C18.484 21.5153 18.387 21.5714 18.2807 21.6002C18.1743 21.6291 18.0623 21.6298 17.9557 21.6021C17.0531 21.3662 17.1326 21.5637 11.5688 27.0178C11.4523 27.1313 11.3598 27.267 11.2966 27.4168C11.2333 27.5666 11.2008 27.7276 11.2008 27.8902C11.2008 28.0529 11.2333 28.2138 11.2966 28.3637C11.3598 28.5135 11.4523 28.6492 11.5688 28.7627L12.9406 30.1701L14.2657 31.5226C14.3776 31.6375 14.511 31.7291 14.6584 31.7922C14.8058 31.8553 14.9642 31.8888 15.1245 31.8905C15.2848 31.8923 15.4439 31.8624 15.5927 31.8026C15.7414 31.7428 15.8769 31.6542 15.9913 31.5418C21.5387 26.1097 21.7527 26.1756 21.5442 25.2867C21.5178 25.1778 21.5201 25.0639 21.5509 24.9562C21.5816 24.8485 21.6398 24.7506 21.7198 24.6721L22.2355 24.1618C22.3117 24.0871 22.4064 24.034 22.5099 24.0082L23.407 26.3649C23.2672 26.9207 22.979 27.428 22.573 27.8326ZM21.9831 22.62L19.514 25.0507C19.4229 25.14 19.3151 25.2105 19.1967 25.2579C19.0783 25.3053 18.9517 25.3288 18.8241 25.327C18.6966 25.3252 18.5706 25.2982 18.4536 25.2475C18.3366 25.1968 18.2307 25.1234 18.1422 25.0315C18.1347 25.026 18.1289 25.0184 18.1258 25.0096C17.9543 24.8254 17.8615 24.5815 17.8671 24.3299C17.8728 24.0783 17.9764 23.8388 18.156 23.6625L21.2424 20.6446L23.7116 18.2166C23.8785 18.0522 24.0997 17.9545 24.3337 17.9418C24.5676 17.9292 24.7982 18.0025 24.9818 18.1481C25.0184 18.1708 25.0516 18.1985 25.0806 18.2304C25.2602 18.4135 25.3608 18.6597 25.3608 18.9162C25.3608 19.1727 25.2602 19.419 25.0806 19.6021L21.9831 22.62ZM33.0065 17.624L27.7939 22.727C27.3468 23.1598 26.7823 23.4518 26.1706 23.5664C25.5589 23.681 24.927 23.6133 24.3535 23.3717C24.2561 23.33 24.1704 23.265 24.1041 23.1823C24.0378 23.0996 23.9929 23.0019 23.9733 22.8977C23.9538 22.7935 23.9603 22.6862 23.9921 22.5851C24.024 22.484 24.0803 22.3923 24.156 22.3182L24.669 21.8106C24.7478 21.7322 24.8457 21.6757 24.953 21.6468C25.0603 21.6179 25.1734 21.6176 25.2808 21.646C26.1807 21.882 26.1039 21.6844 31.665 16.2303C31.7809 16.1162 31.8729 15.9802 31.9357 15.8302C31.9985 15.6802 32.0309 15.5192 32.0309 15.3565C32.0309 15.1939 31.9985 15.0329 31.9357 14.8829C31.8729 14.7329 31.7809 14.5968 31.665 14.4827L30.178 12.9683L28.9626 11.7228C28.8505 11.6081 28.7169 11.5167 28.5695 11.4538C28.422 11.3909 28.2635 11.3578 28.1032 11.3562C27.9429 11.3547 27.7838 11.3848 27.6352 11.4449C27.4865 11.505 27.3512 11.5938 27.237 11.7063C21.717 17.1083 21.4756 17.0726 21.6841 17.9615C21.7107 18.0716 21.7084 18.1868 21.6777 18.2958C21.647 18.4049 21.5887 18.5042 21.5085 18.5843L20.9927 19.0836C20.9158 19.1585 20.8216 19.2131 20.7184 19.2427C20.5658 19.2866 20.4024 19.2722 20.2599 19.2022C20.1174 19.1322 20.006 19.0117 19.9475 18.8641C19.6896 18.2345 19.6453 17.5378 19.8213 16.8806C19.9658 16.328 20.2568 15.8247 20.6635 15.4238L25.8762 10.3181C26.4777 9.73407 27.2859 9.41176 28.1243 9.42153C28.9626 9.4313 29.7631 9.77235 30.3508 10.3702L31.547 11.5966L33.0669 13.1439C33.357 13.4418 33.5855 13.794 33.7394 14.1803C33.8934 14.5665 33.9697 14.9793 33.9641 15.3951C33.9585 15.8109 33.8711 16.2215 33.7068 16.6035C33.5425 16.9854 33.3045 17.3313 33.0065 17.6213V17.624Z" fill="black" fill-opacity="0.2"/>
</svg>
