<svg width="16" height="14" viewBox="0 0 16 14" fill="none" xmlns="http://www.w3.org/2000/svg">
<path d="M10.0928 5.11679C11.8633 6.71191 11.839 9.26929 10.1034 10.84C10.1002 10.8432 10.0963 10.8466 10.0928 10.8498L8.1014 12.6421C6.34501 14.2228 3.48747 14.2226 1.73135 12.6421C-0.0250338 11.0616 -0.0250338 8.48951 1.73135 6.90903L2.83094 5.91941C3.12253 5.65697 3.6247 5.83139 3.63976 6.20227C3.65896 6.67492 3.75314 7.14978 3.92691 7.60835C3.98576 7.76362 3.94371 7.93538 3.8148 8.0514L3.42699 8.40043C2.59648 9.14789 2.57043 10.365 3.39276 11.1197C4.22321 11.8819 5.5882 11.8865 6.42502 11.1333L8.4164 9.34135C9.2518 8.58949 9.24831 7.37424 8.4164 6.62553C8.30673 6.52701 8.19625 6.45046 8.10996 6.39699C8.04891 6.35926 7.99851 6.30921 7.96276 6.25084C7.92702 6.19247 7.90693 6.12739 7.9041 6.06078C7.89236 5.77896 8.00331 5.48855 8.25075 5.26585L8.87466 4.70431C9.03826 4.55707 9.29492 4.53898 9.48463 4.65815C9.7019 4.79468 9.9054 4.94816 10.0928 5.11679ZM14.2692 1.35784C12.5131 -0.222689 9.65553 -0.222903 7.89915 1.35784L5.90777 3.15008C5.90421 3.15328 5.90036 3.15675 5.8971 3.15995C4.16158 4.73061 4.13725 7.28799 5.90777 8.88311C6.09513 9.05173 6.29862 9.2052 6.51588 9.34173C6.70559 9.46089 6.96228 9.44278 7.12586 9.29556L7.74976 8.73402C7.9972 8.51132 8.10815 8.22091 8.09642 7.93909C8.09358 7.87249 8.07349 7.8074 8.03775 7.74903C8.00201 7.69066 7.9516 7.64061 7.89055 7.60288C7.80426 7.54941 7.69379 7.47287 7.58411 7.37435C6.75221 6.62563 6.74871 5.41038 7.58411 4.65852L9.57549 2.86655C10.4123 2.11341 11.7773 2.11794 12.6078 2.88015C13.4301 3.63492 13.4041 4.85198 12.5735 5.59944L12.1857 5.94848C12.0568 6.06449 12.0148 6.23625 12.0736 6.39152C12.2474 6.85009 12.3416 7.32495 12.3608 7.7976C12.3758 8.16848 12.878 8.3429 13.1696 8.08047L14.2692 7.09084C16.0256 5.51039 16.0256 2.93832 14.2692 1.35784Z" fill="#FF7020"/>
</svg>
