<svg width="24" height="21" viewBox="0 0 24 21" fill="none" xmlns="http://www.w3.org/2000/svg">
<path d="M23.1285 6.47129C22.8285 5.06504 22.341 3.90254 21.4785 2.98379C20.2598 1.63379 18.666 0.977539 16.7723 0.977539H16.5285C14.5223 1.03379 12.8723 1.84004 11.7098 3.30254C11.2785 2.81504 10.7348 2.32754 10.116 1.95254C8.89727 1.22129 7.49102 0.921289 5.89727 1.03379C4.13477 1.22129 2.72852 2.00879 1.67852 3.30254C0.572269 4.76504 0.0285195 6.41504 0.0847695 8.12129C0.141019 9.71504 0.628519 11.1775 1.54727 12.5838C2.57852 14.1775 3.87227 15.3963 5.03477 16.3713C6.68477 17.8338 8.57852 19.1275 10.9598 20.4588C11.2035 20.59 11.391 20.6463 11.6348 20.6463C11.8785 20.6463 12.066 20.59 12.3098 20.4588C14.391 19.2963 16.2098 18.0775 17.8598 16.6713C19.566 15.265 20.7848 13.915 21.7598 12.4525C23.0723 10.5588 23.4848 8.60879 23.1285 6.47129Z" fill="#FF5555"/>
</svg>
