<svg width="40" height="41" viewBox="0 0 40 41" fill="none" xmlns="http://www.w3.org/2000/svg">
<path d="M40 20.5198C40.0204 31.5392 31.0338 40.5499 20.0145 40.5576C15.2552 40.561 10.8836 38.902 7.44822 36.1293C6.55491 35.4083 6.48814 34.0695 7.29991 33.2578L8.20854 32.3491C8.90281 31.6549 10.0112 31.5789 10.7804 32.1891C13.3114 34.1976 16.5146 35.3964 20 35.3964C28.202 35.3964 34.8387 28.7584 34.8387 20.5577C34.8387 12.3556 28.2007 5.71892 20 5.71892C16.0634 5.71892 12.488 7.24868 9.83322 9.7457L13.9263 13.8388C14.7392 14.6517 14.1635 16.0415 13.0139 16.0415H1.29032C0.577661 16.0415 0 15.4639 0 14.7512V3.02754C0 1.87802 1.38984 1.3023 2.20274 2.11512L6.18435 6.09674C9.77491 2.66536 14.6413 0.557617 20 0.557617C31.033 0.557617 39.9796 9.4915 40 20.5198ZM25.4103 26.8734L26.2025 25.8548C26.8588 25.0111 26.7068 23.795 25.863 23.1388L22.5806 20.5858V12.1705C22.5806 11.1016 21.7141 10.2351 20.6451 10.2351H19.3548C18.2859 10.2351 17.4193 11.1016 17.4193 12.1705V23.1102L22.6943 27.2129C23.538 27.8691 24.754 27.7172 25.4103 26.8734Z" fill="#0198E9" fill-opacity="0.8"/>
</svg>
