<svg width="23" height="23" viewBox="0 0 23 23" fill="none" xmlns="http://www.w3.org/2000/svg">
<path d="M9.66671 18.9999C11.7375 18.9995 13.7486 18.3063 15.3799 17.0306L20.5085 22.1592L22.1582 20.5096L17.0295 15.3809C18.3059 13.7495 18.9995 11.7379 19 9.66658C19 4.52042 14.8129 0.333252 9.66671 0.333252C4.52054 0.333252 0.333374 4.52042 0.333374 9.66658C0.333374 14.8127 4.52054 18.9999 9.66671 18.9999ZM9.66671 2.66658C13.5272 2.66658 16.6667 5.80608 16.6667 9.66658C16.6667 13.5271 13.5272 16.6666 9.66671 16.6666C5.80621 16.6666 2.66671 13.5271 2.66671 9.66658C2.66671 5.80608 5.80621 2.66658 9.66671 2.66658Z" fill="white"/>
</svg>
