<svg width="20" height="21" viewBox="0 0 20 21" fill="none" xmlns="http://www.w3.org/2000/svg">
<path d="M16.9076 3.76277C15.0629 1.91363 12.6062 0.896606 9.99536 0.896606C4.60644 0.896606 0.221347 5.2817 0.221347 10.6706C0.221347 12.3921 0.670423 14.0739 1.52455 15.5576L0.137695 20.6207L5.31968 19.2603C6.74616 20.0396 8.35315 20.449 9.99096 20.449H9.99536C15.3799 20.449 19.8618 16.0639 19.8618 10.675C19.8618 8.06422 18.7523 5.61191 16.9076 3.76277ZM9.99536 18.8024C8.53366 18.8024 7.10278 18.4106 5.85681 17.6709L5.56183 17.4948L2.48874 18.3005L3.30765 15.3023L3.11393 14.9941C2.29943 13.6997 1.87236 12.2072 1.87236 10.6706C1.87236 6.19307 5.51781 2.54762 9.99976 2.54762C12.1703 2.54762 14.2088 3.39294 15.7409 4.92949C17.273 6.46603 18.2152 8.50449 18.2108 10.675C18.2108 15.157 14.4729 18.8024 9.99536 18.8024ZM14.4509 12.7179C14.2088 12.5946 13.0068 12.0046 12.7823 11.9254C12.5577 11.8417 12.3948 11.8021 12.2319 12.0487C12.069 12.2952 11.6024 12.8412 11.4571 13.0085C11.3162 13.1714 11.1709 13.1934 10.9287 13.0701C9.49345 12.3525 8.55127 11.7889 7.60469 10.1643C7.35374 9.73284 7.85564 9.76366 8.32233 8.83029C8.40158 8.66739 8.36196 8.5265 8.30032 8.40323C8.23868 8.27995 7.74998 7.07801 7.54746 6.58931C7.34933 6.11382 7.14681 6.17986 6.99712 6.17105C6.85623 6.16225 6.69333 6.16225 6.53043 6.16225C6.36753 6.16225 6.10337 6.22388 5.87883 6.46603C5.65429 6.71259 5.0247 7.30255 5.0247 8.50449C5.0247 9.70643 5.90084 10.8687 6.01972 11.0316C6.14299 11.1945 7.74117 13.6601 10.1935 14.7211C11.7432 15.3903 12.3508 15.4476 13.1257 15.3331C13.5968 15.2626 14.5698 14.7431 14.7723 14.1708C14.9748 13.5984 14.9748 13.1097 14.9132 13.0085C14.856 12.8984 14.6931 12.8368 14.4509 12.7179Z" fill="#3AB137"/>
</svg>
