<svg width="21" height="20" viewBox="0 0 21 20" fill="none" xmlns="http://www.w3.org/2000/svg">
<path d="M19.3991 0.137939H1.83788C1.0332 0.137939 0.379395 0.776332 0.379395 1.56001V18.44C0.379395 19.2237 1.0332 19.8621 1.83788 19.8621H19.3991C20.2038 19.8621 20.8622 19.2237 20.8622 18.44V1.56001C20.8622 0.776332 20.2038 0.137939 19.3991 0.137939ZM6.56994 17.0443H3.53411V7.63135H6.57452V17.0443H6.56994ZM5.05202 6.34576C4.07818 6.34576 3.29179 5.58409 3.29179 4.65072C3.29179 3.71734 4.07818 2.95567 5.05202 2.95567C6.0213 2.95567 6.81226 3.71734 6.81226 4.65072C6.81226 5.58849 6.02587 6.34576 5.05202 6.34576ZM17.9498 17.0443H14.9139V12.4655C14.9139 11.3737 14.8911 9.96919 13.3366 9.96919C11.7546 9.96919 11.5123 11.1579 11.5123 12.3863V17.0443H8.47649V7.63135H11.3889V8.91694H11.43C11.8369 8.17729 12.8291 7.39801 14.3058 7.39801C17.3783 7.39801 17.9498 9.34841 17.9498 11.8844V17.0443Z" fill="#268AA9"/>
</svg>
